HIERARCHY
ROOT Hips
{
    OFFSET 0.0 0.0 0.0
    CHANNELS 6 Xposition Yposition Zposition Zrotation Xrotation Yrotation
    JOINT LeftHipJoint
    {
        OFFSET 0.1 0.0 0.0
        CHANNELS 3 Zrotation Xrotation Yrotation
        JOINT LeftUpLeg
        {
            OFFSET 124.94992506288618 0.0 0.0
            CHANNELS 3 Zrotation Xrotation Yrotation
            JOINT LeftLeg
            {
                OFFSET 0.0 0.0 -408.62860473802584
                CHANNELS 3 Zrotation Xrotation Yrotation
                JOINT LeftFoot
                {
                    OFFSET 0.0 0.0 -376.31551124501533
                    CHANNELS 3 Zrotation Xrotation Yrotation
                    End Site
                    {
                        OFFSET 0.0 -0.1 0.0
                    }
                }
            }
        }
    }
    JOINT LowerBack
    {
        OFFSET 0.0 0.0 0.1
        CHANNELS 3 Zrotation Xrotation Yrotation
        JOINT Spine
        {
            OFFSET 0.0 0.0 216.29010490104798
            CHANNELS 3 Zrotation Xrotation Yrotation
            JOINT Spine1
            {
                OFFSET 0.0 0.0 252.92598777463812
                CHANNELS 3 Zrotation Xrotation Yrotation
                JOINT LeftShoulder
                {
                    OFFSET 0.1 0.0 0.0
                    CHANNELS 3 Zrotation Xrotation Yrotation
                    JOINT LeftArm
                    {
                        OFFSET 143.12066963857728 0.0 0.0
                        CHANNELS 3 Zrotation Xrotation Yrotation
                        JOINT LeftForeArm
                        {
                            OFFSET 255.72812547611113 0.0 0.0
                            CHANNELS 3 Zrotation Xrotation Yrotation
                            JOINT LeftHand
                            {
                                OFFSET 227.57215504512726 0.0 0.0
                                CHANNELS 3 Zrotation Xrotation Yrotation
                                End Site
                                {
                                    OFFSET 0.1 0.0 0.0
                                }
                            }
                        }
                    }
                }
                JOINT Neck
                {
                    OFFSET 0.0 0.0 0.1
                    CHANNELS 3 Zrotation Xrotation Yrotation
                    JOINT Neck1
                    {
                        OFFSET 0.0 0.0 106.27224356769827
                        CHANNELS 3 Zrotation Xrotation Yrotation
                        End Site
                        {
                            OFFSET 0.0 0.0 117.85794587708591
                        }
                    }
                }
                JOINT RightShoulder
                {
                    OFFSET -0.1 0.0 0.0
                    CHANNELS 3 Zrotation Xrotation Yrotation
                    JOINT RightArm
                    {
                        OFFSET -143.12066963857728 0.0 0.0
                        CHANNELS 3 Zrotation Xrotation Yrotation
                        JOINT RightForeArm
                        {
                            OFFSET -255.72812547611113 0.0 0.0
                            CHANNELS 3 Zrotation Xrotation Yrotation
                            JOINT RightHand
                            {
                                OFFSET -227.57215504512726 0.0 0.0
                                CHANNELS 3 Zrotation Xrotation Yrotation
                                End Site
                                {
                                    OFFSET -0.1 0.0 0.0
                                }
                            }
                        }
                    }
                }
            }
        }
    }
    JOINT RightHipJoint
    {
        OFFSET -0.1 0.0 0.0
        CHANNELS 3 Zrotation Xrotation Yrotation
        JOINT RightUpLeg
        {
            OFFSET -124.94992506288618 0.0 0.0
            CHANNELS 3 Zrotation Xrotation Yrotation
            JOINT RightLeg
            {
                OFFSET 0.0 0.0 -408.62860473802584
                CHANNELS 3 Zrotation Xrotation Yrotation
                JOINT RightFoot
                {
                    OFFSET 0.0 0.0 -376.31551124501533
                    CHANNELS 3 Zrotation Xrotation Yrotation
                    End Site
                    {
                        OFFSET 0.0 -0.1 0.0
                    }
                }
            }
        }
    }
}
MOTION
Frames: 4
Frame Time: 0.03333333333333333
0.0 0.0 807.165676021574 30.15512066696194 -3.808183955094671 5.604794375995388 0.0 0.0 -1.987846675914698e-16 -0.1391769297615292 -12.005967679222405 -0.9818275171688888 -0.20973804398805518 34.69785077269321 2.4814529296763173 0.0 0.0 7.951386703658792e-16 0.0 0.0 -1.987846675914698e-16 -0.036286419558829226 -3.111726311957251 7.278441306458348 7.132871111457916 3.7206823845920775e-16 -4.215305190439611e-16 -6.361109362927033e-15 3.975693351829395e-16 1.1927080055488186e-15 13.181472132716952 -26.952817066692276 46.610141666264596 -95.05136952609239 0.0 0.0 0.0 0.0 3.1805546814635168e-15 -6.361109362927033e-15 3.975693351829395e-16 1.1927080055488186e-15 -15.921336489590017 -3.8290989936213364 -11.258177462213544 -6.361109362927033e-15 3.975693351829395e-16 1.1927080055488186e-15 44.7738180686273 -57.79887672785106 6.222699724452372 95.82504648583378 1.6747165020478637e-15 -1.1344707563480955e-14 -7.951386703658792e-16 0.0 0.0 0.0 0.0 -1.987846675914698e-16 -0.0605584132814989 -4.984189821979573 -2.78237955415639 -1.6326763603257095 37.72899591166758 1.9823239767288385 0.0 0.0 -7.951386703658792e-16
0.0 0.0 807.165676021574 29.863307986784694 -3.9586147851915063 5.779782256046774 -3.1805546814635164e-15 1.1034765745125397e-32 -3.9756933518293955e-16 -0.15114007241429955 -11.68353715648361 -1.1700889943240362 -0.2849801447135874 34.54161382968478 2.5175822747597483 0.0 0.0 0.0 -3.1805546814635164e-15 1.1034765745125397e-32 -3.9756933518293955e-16 -0.04061718726655194 -3.1254740430565398 7.119159365798106 7.232494678884157 1.1151048835480144e-15 -1.2655614847520653e-15 -1.3793457181406746e-33 3.9756933518293955e-16 3.9756933518293955e-16 11.623583340133521 -27.674846154565362 46.00454947665259 -96.67830075536554 -6.866515859303066e-15 1.8521879933842967e-15 0.0 6.361109362927035e-15 0.0 -1.3793457181406746e-33 3.9756933518293955e-16 3.9756933518293955e-16 -15.735071598861614 -3.5993550013495366 -11.289764112066834 -1.3793457181406746e-33 3.9756933518293955e-16 3.9756933518293955e-16 46.41850398813511 -57.33087228476807 7.468167568925088 96.0634126586409 6.856478377678746e-15 1.889006263970893e-15 0.0 0.0 0.0 -3.1805546814635164e-15 1.1034765745125397e-32 -3.9756933518293955e-16 -0.06444281318280473 -4.77823761028051 -2.887888617215293 -1.6391973394683497 37.45943325102465 2.1215635462847175 0.0 0.0 -7.951386703658792e-16
0.0 0.0 807.165676021574 29.640992064841885 -4.216619608767942 6.04569762912147 -3.1805546814635168e-15 1.987846675914698e-16 5.517382872562698e-33 -0.17722858759918608 -11.248691874374117 -1.4787497582445255 -0.37986693329932625 34.15118002100672 2.7439805946960236 0.0 0.0 0.0 -3.1805546814635168e-15 1.987846675914698e-16 5.517382872562698e-33 -0.04787929468966581 -3.02988354910154 6.977303414537423 7.308264218990432 1.9838053032348747e-15 -1.2669224839074121e-16 -6.896728590703373e-33 1.9878466759146976e-15 3.9756933518293955e-16 10.324542751934827 -28.28358360058473 45.26474860737071 -98.70143269434054 -1.0700720338544215e-14 -7.58059111326535e-15 0.0 0.0 0.0 -6.896728590703373e-33 1.9878466759146976e-15 3.9756933518293955e-16 -15.509779315224074 -3.2084850033451118 -11.43626349378062 -6.896728590703373e-33 1.9878466759146976e-15 3.9756933518293955e-16 48.34669932364269 -57.227232579966596 8.968505004884614 96.21618796162603 -2.6115037052701187e-15 -6.615110642026928e-15 0.0 0.0 0.0 -3.1805546814635168e-15 1.987846675914698e-16 5.517382872562698e-33 -0.07566749707784366 -4.637990250729947 -3.1716348533873195 -1.716571665212148 37.189943336104214 2.3691594222106387 0.0 0.0 -7.951386703658792e-16
0.0 0.0 807.165676021574 29.452917654217607 -4.396250156953705 6.292631715904316 0.0 0.0 0.0 -0.19321380325081844 -10.89621625847111 -1.6949673117045647 -0.4406701599662379 33.64555464911881 2.7950688869235756 2.2069531490250793e-32 -3.1805546814635168e-15 7.951386703658792e-16 0.0 0.0 0.0 -0.05410051882346095 -3.042966358227735 6.921650172502994 7.329333840621364 -2.034604776298618e-15 -6.664557872201153e-16 -1.3793457181406746e-33 3.9756933518293955e-16 3.9756933518293955e-16 8.53988172178829 -28.920824714077828 44.47364903368138 -100.61481441233096 -1.3020038339793294e-14 -5.726880762326256e-15 0.0 0.0 -3.1805546814635168e-15 -1.3793457181406746e-33 3.9756933518293955e-16 3.9756933518293955e-16 -15.503109387980665 -2.8397119452913593 -11.60634294966116 -1.3793457181406746e-33 3.9756933518293955e-16 3.9756933518293955e-16 50.31149500349656 -56.99043130847877 10.43985453328467 96.04761395052562 2.6017694879222533e-15 6.618945228706326e-15 -7.951386703658792e-16 0.0 0.0 0.0 0.0 0.0 -0.08347259407674003 -4.559269671713202 -3.3612852475260033 -1.7503236882374151 36.81080026447468 2.529158461796321 0.0 0.0 0.0
